<?xml version="1.0" standalone="no"?>
<!DOCTYPE svg PUBLIC "-//W3C//DTD SVG 20010904//EN"
 "http://www.w3.org/TR/2001/REC-SVG-20010904/DTD/svg10.dtd">
<svg version="1.0" xmlns="http://www.w3.org/2000/svg"
 width="500.000000pt" height="500.000000pt" viewBox="0 0 300.000000 300.000000"
 preserveAspectRatio="xMidYMid meet">
<metadata>
Created by potrace 1.10, written by Peter Selinger 2001-2011
</metadata>
<g transform="translate(0.000000,300.000000) scale(0.100000,-0.100000)"
fill="#000000" stroke="none">
<path d="M1335 2260 c-364 -58 -634 -356 -652 -721 -7 -124 6 -210 49 -320 88
-234 283 -405 532 -469 100 -25 132 -26 146 -1 21 40 10 95 -22 112 -15 8 -28
3 -69 -26 -65 -48 -86 -43 -122 30 -19 40 -32 55 -47 55 -13 0 -24 10 -30 25
-5 14 -16 25 -25 25 -9 0 -20 11 -25 25 -6 16 -17 25 -32 25 -46 0 -50 12 -28
75 11 32 20 72 20 89 -1 30 -1 30 -16 11 -8 -11 -19 -37 -25 -59 -11 -41 -102
-147 -115 -133 -14 13 -16 161 -5 302 12 154 40 273 90 382 34 73 91 163 104
163 4 0 14 -15 23 -33 l16 -32 55 25 55 25 -5 51 c-7 69 -46 143 -103 193 -26
22 -51 41 -56 41 -5 0 -6 5 -3 10 3 6 15 10 26 10 11 0 42 11 69 25 26 13 67
29 89 35 23 5 59 15 81 20 51 13 179 16 250 5 211 -30 409 -164 519 -349 63
-106 81 -154 93 -246 20 -157 11 -276 -26 -352 -12 -27 -17 -43 -9 -37 20 17
16 4 -19 -59 -66 -120 -158 -232 -190 -232 -9 0 -10 -2 -1 -8 15 -9 -86 -78
-137 -93 -32 -10 -45 -7 -114 21 -114 48 -187 101 -257 188 -61 75 -119 184
-119 219 1 16 2 15 13 -3 7 -12 18 -19 25 -16 8 2 26 -7 40 -20 30 -28 137
-48 250 -48 78 0 196 26 242 53 117 67 138 97 28 37 -95 -51 -172 -70 -283
-70 -139 0 -235 31 -270 87 -16 25 -27 32 -53 33 -30 0 -32 -2 -26 -27 26
-114 97 -234 190 -322 82 -78 150 -120 254 -155 l75 -25 45 26 c231 134 372
363 387 628 20 368 -223 701 -578 789 -82 20 -226 28 -304 16z m-222 -220 c31
-33 51 -68 62 -102 19 -63 19 -68 1 -68 -8 0 -17 -9 -21 -19 -6 -21 -38 -18
-67 6 -21 19 -48 10 -83 -25 -27 -26 -75 -122 -75 -147 0 -7 -7 -16 -16 -19
-8 -3 -13 -10 -9 -16 3 -5 -1 -20 -10 -34 -9 -13 -15 -30 -14 -38 1 -7 -3 -26
-9 -41 -7 -16 -10 -33 -7 -38 3 -5 1 -17 -5 -28 -9 -17 -25 -242 -21 -307 0
-15 -5 -21 -17 -20 -21 1 -66 103 -89 200 -25 110 -14 276 24 389 42 120 84
188 175 279 96 98 114 101 181 28z m-109 -1045 c131 -103 170 -144 153 -161
-8 -8 -96 40 -153 82 -64 47 -80 70 -63 90 16 19 26 18 63 -11z m374 -197 c-2
-17 -11 -24 -30 -26 -34 -4 -36 10 -5 31 31 22 39 21 35 -5z"/>
<path d="M1785 2008 c-22 -18 -60 -52 -85 -75 -25 -24 -54 -43 -64 -43 -11 0
-48 11 -82 25 -75 30 -189 46 -259 35 -44 -6 -39 -7 40 -8 100 -1 160 -12 226
-41 52 -23 90 -50 71 -51 -8 0 -25 -9 -39 -19 -13 -11 -32 -17 -41 -14 -13 4
-12 2 3 -10 11 -9 15 -17 8 -17 -16 0 -38 -41 -26 -49 19 -13 63 -131 63 -169
0 -47 8 -74 21 -66 26 16 -3 154 -45 217 -24 35 -24 37 -7 49 10 7 76 65 146
128 70 63 132 117 137 119 6 2 8 -16 4 -50 -10 -97 -16 -183 -15 -239 l0 -54
-106 -101 c-109 -103 -134 -142 -135 -208 0 -32 -14 -62 -42 -93 -16 -18 -17
-22 -5 -27 16 -6 47 23 66 60 6 12 11 50 11 85 l1 63 68 50 c38 28 85 70 104
93 l36 42 22 -57 c19 -47 23 -78 23 -165 1 -101 2 -108 21 -108 11 0 27 5 35
11 12 8 10 9 -10 7 -24 -3 -25 -2 -27 75 -1 43 -12 115 -25 160 -12 45 -21 87
-18 92 4 11 32 299 31 329 0 23 -29 56 -50 56 -9 0 -34 -15 -56 -32z"/>
<path d="M1720 1790 c-92 -83 -118 -111 -84 -91 26 14 191 170 181 171 -4 0
-47 -36 -97 -80z"/>
<path d="M1141 1712 c46 -85 115 -161 177 -195 49 -27 52 -27 77 -11 18 12 39
15 75 12 44 -4 50 -3 50 13 0 16 -8 19 -53 19 -32 0 -67 -7 -91 -19 l-37 -20
-57 57 c-32 32 -73 87 -92 124 -19 37 -36 65 -38 63 -2 -2 1 -13 8 -24 7 -14
7 -21 0 -21 -5 0 -10 6 -10 13 0 8 -10 22 -22 33 -17 15 -15 7 13 -44z"/>
<path d="M1732 1688 c-70 -63 -102 -106 -46 -61 47 38 121 113 111 113 -4 0
-33 -24 -65 -52z"/>
<path d="M1035 1478 c-71 -26 -138 -68 -108 -68 7 0 15 5 19 11 7 12 74 42
117 53 69 17 0 -84 -83 -121 -33 -14 -58 -28 -55 -31 2 -2 33 9 68 26 56 26
68 37 98 88 42 73 43 74 32 73 -4 -1 -44 -15 -88 -31z"/>
<path d="M1403 1438 c-62 -67 1 -167 86 -137 37 13 51 35 51 83 0 67 -92 103
-137 54z m99 -2 c27 -20 34 -71 14 -101 -13 -19 -25 -25 -55 -25 -44 0 -66 20
-70 67 -5 58 64 95 111 59z"/>
<path d="M1115 1309 c-28 -17 -59 -43 -70 -57 -16 -23 -14 -22 20 7 47 41 93
61 140 61 19 0 35 5 35 10 0 22 -76 10 -125 -21z"/>
<path d="M1125 1273 c-11 -8 -28 -20 -38 -28 -15 -11 -16 -16 -6 -39 11 -24
13 -25 30 -10 17 16 45 81 37 89 -1 2 -12 -3 -23 -12z"/>
<path d="M1680 779 c-19 -4 -78 -16 -130 -25 -52 -9 -99 -20 -104 -24 -19 -18
210 21 266 45 36 16 22 18 -32 4z"/>
</g>
</svg>
